<?xml version="1.0" encoding="UTF-8" standalone="no"?>
<!-- Created with Inkscape (http://www.inkscape.org/) -->

<svg
   width="17.054327mm"
   height="8.4989281mm"
   viewBox="0 0 17.054327 8.4989278"
   version="1.1"
   id="svg33139"
   sodipodi:docname="bandera.svg"
   inkscape:version="1.1.1 (3bf5ae0d25, 2021-09-20)"
   xmlns:inkscape="http://www.inkscape.org/namespaces/inkscape"
   xmlns:sodipodi="http://sodipodi.sourceforge.net/DTD/sodipodi-0.dtd"
   xmlns="http://www.w3.org/2000/svg"
   xmlns:svg="http://www.w3.org/2000/svg">
  <sodipodi:namedview
     id="namedview33141"
     pagecolor="#ffffff"
     bordercolor="#666666"
     borderopacity="1.0"
     inkscape:pageshadow="2"
     inkscape:pageopacity="0.0"
     inkscape:pagecheckerboard="0"
     inkscape:document-units="mm"
     showgrid="false"
     inkscape:zoom="1.2065215"
     inkscape:cx="67.963976"
     inkscape:cy="-0.82882898"
     inkscape:window-width="1295"
     inkscape:window-height="745"
     inkscape:window-x="63"
     inkscape:window-y="-8"
     inkscape:window-maximized="1"
     inkscape:current-layer="layer1" />
  <defs
     id="defs33136" />
  <g
     inkscape:label="Capa 1"
     inkscape:groupmode="layer"
     id="layer1"
     transform="translate(-162.04867,-111.18212)">
    <path
       style="fill:#fbd015;fill-opacity:1;fill-rule:evenodd;stroke:#ffffff;stroke-width:0.23179;paint-order:stroke fill markers"
       d="m 171.24285,116.04257 c -1.51473,-0.12549 -7.75389,-1.13694 -8.54728,-1.38563 -0.29339,-0.092 -0.25184,-0.20053 0.17384,-0.45437 0.29228,-0.17428 0.33122,-0.23371 0.17384,-0.26527 -0.25246,-0.0506 -0.27142,-0.48726 -0.0212,-0.48726 0.12582,0 0.16014,-0.0678 0.11166,-0.22054 -0.0628,-0.19788 -0.0294,-0.21139 0.32492,-0.13148 l 0.39492,0.0891 -0.15818,-0.30313 c -0.2034,-0.38982 -0.20183,-0.59288 0.004,-0.59288 0.0903,0 0.18447,-0.0608 0.20926,-0.13523 0.0278,-0.0832 0.13946,-0.0339 0.29052,0.12822 0.15923,0.17091 -0.0911,-0.21162 0.009,-0.27368 0.0846,-0.0526 0.38963,0.079 0.54021,0.0984 0.4293,0.0555 0.45945,0.0862 0,0 -0.22087,-0.0414 -0.40157,-0.12168 -0.40157,-0.17833 0,-0.0566 -0.0391,-0.0913 -0.0869,-0.077 -0.15366,0.046 -1.19142,-0.28561 -1.26468,-0.40414 -0.11932,-0.19306 0.86977,0.009 2.5505,0.52042 0.61392,0.1869 0.81333,0.20904 0.88201,0.0979 0.0697,-0.11286 0.47052,-0.11712 1.87233,-0.0199 4.17117,0.28929 5.55598,0.22314 8.14917,-0.38929 0.95137,-0.22469 1.75285,-0.38543 1.78108,-0.35722 0.0282,0.0282 -0.0852,0.0856 -0.25211,0.12747 -0.45725,0.11477 -0.36756,0.30535 0.10222,0.21722 0.35526,-0.0666 0.40564,-0.0469 0.40564,0.15893 0,0.12927 -0.0652,0.26134 -0.14487,0.29349 -0.11589,0.0468 -0.11589,0.0603 0,0.0676 0.31089,0.0197 0.123,0.23453 -0.26942,0.30816 -0.50897,0.0955 -0.38405,0.25223 0.24045,0.30169 0.41447,0.0328 0.46126,0.0674 0.44173,0.32646 -0.012,0.15935 -0.0335,0.4462 -0.0477,0.63742 -0.0142,0.19124 0.004,0.48612 0.0411,0.65531 0.12011,0.55141 -0.54916,0.95604 -2.28947,1.38415 -0.92798,0.22828 -3.85473,0.37607 -5.2153,0.26334 z m -7.70704,-1.83921 c 0,-0.0956 -0.0521,-0.17384 -0.1159,-0.17384 -0.0637,0 -0.1159,0.0782 -0.1159,0.17384 0,0.0956 0.0521,0.17384 0.1159,0.17384 0.0637,0 0.1159,-0.0782 0.1159,-0.17384 z m 2.60764,-1.79638 c -0.0394,-0.0637 -0.19893,-0.1159 -0.35452,-0.1159 -0.1556,0 -0.2829,0.0521 -0.2829,0.1159 0,0.0637 0.15954,0.11589 0.35453,0.11589 0.20683,0 0.32469,-0.0483 0.28289,-0.11589 z"
       id="path23458"
       sodipodi:nodetypes="csssssscssssscsscssscsssssscsssscsccssssssssss" />
    <path
       style="fill:#003893;fill-opacity:1;fill-rule:evenodd;stroke:#ffffff;stroke-width:0.23179;paint-order:stroke fill markers"
       d="m 169.50442,118.13162 c -0.19123,-0.0281 -0.89529,-0.13102 -1.56459,-0.22869 -1.34102,-0.19572 -5.44294,-1.16762 -5.61112,-1.32949 -0.0584,-0.0561 -0.12489,-0.28532 -0.14786,-0.50926 -0.0336,-0.32711 -0.007,-0.39381 0.13506,-0.33929 0.0973,0.0373 0.17684,0.17031 0.17684,0.29553 0,0.20176 0.0197,0.208 0.17281,0.0548 0.11238,-0.11237 0.14941,-0.28978 0.1059,-0.50733 -0.1336,-0.66804 0.0123,-0.67558 3.10515,-0.1604 4.82721,0.80407 5.36688,0.85941 7.6262,0.78197 2.56672,-0.088 4.12612,-0.40749 5.01417,-1.02738 0.43759,-0.30545 0.62146,-0.21318 0.32533,0.16328 -0.28021,0.35624 -0.31631,0.53416 -0.0663,0.32664 0.20988,-0.17419 0.23299,0.006 0.029,0.22561 -0.11589,0.12487 -0.11589,0.13972 0,0.0743 0.30059,-0.1697 0.13778,0.38083 -0.19556,0.66132 -0.44505,0.37448 -2.10006,0.97118 -3.48411,1.25616 -1.06768,0.21984 -4.74261,0.39125 -5.62093,0.26219 z"
       id="path31238" />
    <path
       style="fill:#ce1126;fill-opacity:1;fill-rule:evenodd;stroke:#ffffff;stroke-width:0.23179;paint-order:stroke fill markers"
       d="m 170.14184,119.51588 c -2.54285,-0.13456 -6.48625,-0.63655 -7.14497,-0.90954 -0.26342,-0.10917 -0.38752,-0.25343 -0.44563,-0.51802 -0.10505,-0.47826 -0.002,-0.82983 0.15973,-0.40505 0.0866,0.22768 0.2557,0.28551 0.31756,0.18543 0.0668,-0.10815 0.0917,0.1224 0.34305,0.20976 0.28169,0.0979 0.30195,0.0938 0.12151,-0.0245 -0.1191,-0.0781 -0.32772,-0.23722 -0.46358,-0.35361 l -0.24702,-0.21163 0.26076,0.0559 c 0.3311,0.071 0.34337,-0.11235 0.0145,-0.21673 -0.1545,-0.049 -0.28339,-0.0195 -0.34591,0.0791 -0.0736,0.11623 -0.10011,0.0925 -0.10143,-0.0911 -0.002,-0.31813 0.23311,-0.4055 0.71593,-0.26574 0.8728,0.25264 4.05886,0.92538 5.16323,1.09022 3.06829,0.458 7.01538,0.0482 9.42911,-0.97892 0.97112,-0.41325 1.03121,-0.4205 1.03121,-0.1243 0,0.58088 -1.68717,1.62409 -3.37526,2.08699 -0.47021,0.12893 -0.90445,0.28622 -1.66936,0.34952 -1.3352,0.1105 -2.35987,0.11643 -3.76343,0.0422 z"
       id="path32915"
       sodipodi:nodetypes="sssssssscssscssssssss" />
  </g>
</svg>
