<?xml version="1.0" encoding="UTF-8" standalone="no"?>
<!-- Created with Inkscape (http://www.inkscape.org/) -->

<svg
   width="49.431999mm"
   height="41.098782mm"
   viewBox="0 0 49.431999 41.09878"
   version="1.1"
   id="svg33139"
   sodipodi:docname="empresa.svg"
   inkscape:version="1.1.1 (eb90963e84, 2021-10-02)"
   xmlns:inkscape="http://www.inkscape.org/namespaces/inkscape"
   xmlns:sodipodi="http://sodipodi.sourceforge.net/DTD/sodipodi-0.dtd"
   xmlns="http://www.w3.org/2000/svg"
   xmlns:svg="http://www.w3.org/2000/svg">
  <sodipodi:namedview
     id="namedview33141"
     pagecolor="#ffffff"
     bordercolor="#666666"
     borderopacity="1.0"
     inkscape:pageshadow="2"
     inkscape:pageopacity="0.0"
     inkscape:pagecheckerboard="0"
     inkscape:document-units="mm"
     showgrid="false"
     inkscape:zoom="1.7062791"
     inkscape:cx="153.25746"
     inkscape:cy="121.31661"
     inkscape:window-width="1223"
     inkscape:window-height="639"
     inkscape:window-x="72"
     inkscape:window-y="27"
     inkscape:window-maximized="1"
     inkscape:current-layer="layer1"
     inkscape:snap-global="false"
     showguides="false" />
  <defs
     id="defs33136">
    <rect
       x="-69.621635"
       y="-681.29742"
       width="89.513527"
       height="53.045055"
       id="rect72840" />
  </defs>
  <g
     inkscape:label="Capa 1"
     inkscape:groupmode="layer"
     id="layer1"
     transform="translate(-71.215526,86.885953)">
    <path
       sodipodi:type="star"
       style="fill:#ce1126;fill-opacity:1;fill-rule:evenodd;stroke:none;stroke-width:2;paint-order:stroke fill markers"
       id="path34492"
       inkscape:flatsided="false"
       sodipodi:sides="6"
       sodipodi:cx="-266.05411"
       sodipodi:cy="-99.45948"
       sodipodi:r1="22.022533"
       sodipodi:r2="19.851816"
       sodipodi:arg1="1.2252407"
       sodipodi:arg2="1.7488395"
       inkscape:rounded="0"
       inkscape:randomized="0"
       transform="matrix(-0.10960138,0.07781083,0.07781083,0.10960138,56.749569,-27.936325)"
       d="m -258.59465,-78.738756 -10.97529,-1.182723 -10.69911,-2.717556 -4.46338,-10.096248 -2.99608,-10.624477 6.51191,-8.91352 7.70303,-7.90692 10.9753,1.18272 10.6991,2.71755 4.46339,10.09625 2.99608,10.624478 -6.51192,8.913526 z" />
    <path
       sodipodi:type="star"
       style="fill:#003893;fill-opacity:1;fill-rule:evenodd;stroke:none;stroke-width:2;paint-order:stroke fill markers"
       id="path34494"
       inkscape:flatsided="false"
       sodipodi:sides="6"
       sodipodi:cx="-208.03607"
       sodipodi:cy="-121.83786"
       sodipodi:r1="31.111462"
       sodipodi:r2="28.044868"
       sodipodi:arg1="0.8419416"
       sodipodi:arg2="1.3655404"
       inkscape:rounded="0"
       inkscape:randomized="0"
       transform="matrix(-0.13441349,0,0,0.13441349,56.11975,-49.115616)"
       d="m -187.31535,-98.630649 -15.00468,4.248963 -15.45371,2.092105 -11.18206,-10.869959 -9.53867,-12.33725 3.82263,-15.11892 5.91504,-14.42936 15.00469,-4.24896 15.45371,-2.09211 11.18205,10.86996 9.53867,12.33725 -3.82263,15.11892 z" />
    <path
       sodipodi:type="star"
       style="fill:#fbd015;fill-opacity:1;fill-rule:evenodd;stroke:none;stroke-width:2;paint-order:stroke fill markers"
       id="path34496"
       inkscape:flatsided="false"
       sodipodi:sides="6"
       sodipodi:cx="-228.75681"
       sodipodi:cy="-64.648659"
       sodipodi:r1="32.366806"
       sodipodi:r2="29.176476"
       sodipodi:arg1="0.69473828"
       sodipodi:arg2="1.2183371"
       inkscape:rounded="0"
       inkscape:randomized="0"
       transform="matrix(-0.13441349,0,0,0.13441349,55.425365,-48.32782)"
       d="m -203.89194,-43.927934 -14.79294,6.662174 -15.58416,4.511072 -13.16609,-9.479982 -11.69878,-11.240743 1.62686,-16.142156 3.88538,-15.751814 14.79294,-6.662174 15.58416,-4.511072 13.16609,9.479982 11.69878,11.240742 -1.62686,16.142156 z" />
    <path
       d="m 99.197016,-52.844827 c -0.194769,-0.06233 -0.76262,-0.238089 -1.261903,-0.390613 l -0.907784,-0.277336 0.02245,-11.469592 0.02245,-11.469605 1.235885,-0.515617 c 0.679741,-0.283589 1.247582,-0.503922 1.261883,-0.489621 0.01425,0.01429 0.01589,5.583429 0.0041,12.375839 l -0.02245,12.349828 -0.354129,-0.113283 z m 0.02747,-1.418257 -0.02747,-0.321613 -0.885314,-0.250534 c -0.48693,-0.137793 -0.897799,-0.25203 -0.913063,-0.253844 -0.01527,-0.002 -0.01527,0.123073 0,0.277534 0.02665,0.270052 0.06007,0.291866 0.868789,0.568488 0.462585,0.158223 0.873341,0.290809 0.912796,0.294622 0.03947,0.0041 0.05935,-0.137762 0.04429,-0.314653 z m 0.01681,-1.659424 v -0.298949 l -0.818918,-0.188587 c -1.036567,-0.238711 -1.040236,-0.238485 -1.040236,0.06591 0,0.244096 0.02973,0.261492 0.818918,0.479929 1.063587,0.294377 1.040236,0.295679 1.040236,-0.05833 z m 0,-1.633429 v -0.338805 l -0.730381,-0.109807 c -0.401714,-0.06039 -0.820025,-0.131359 -0.929577,-0.15771 -0.173928,-0.04181 -0.199196,-0.01319 -0.199196,0.225596 0,0.209989 0.04623,0.284965 0.199196,0.322857 1.091081,0.270334 1.53751,0.378728 1.593562,0.386949 0.03649,0.0051 0.06643,-0.142734 0.06643,-0.32908 z m 0,-1.646118 c 0,-0.337873 -0.01794,-0.345793 -1.018105,-0.449436 -0.292162,-0.03028 -0.600911,-0.07528 -0.686116,-0.100018 -0.125862,-0.03654 -0.154933,0.01117 -0.154933,0.254138 v 0.299116 l 0.774644,0.138962 c 1.126108,0.202019 1.08451,0.207489 1.08451,-0.142766 z m -0.0163,-1.953731 c -0.01538,-0.01402 -0.436353,-0.05417 -0.935451,-0.08919 l -0.907445,-0.0637 v 0.269721 c 0,0.296345 -0.04736,0.280133 1.283706,0.440059 l 0.531184,0.06382 0.02799,-0.297599 c 0.01538,-0.163683 0.01538,-0.309081 0,-0.323111 z m 0.0163,-1.316637 c 0,-0.292812 -0.0072,-0.298412 -0.464789,-0.353359 -0.255638,-0.03071 -0.676471,-0.05618 -0.935194,-0.0566 l -0.470396,-6.8e-4 0.02778,0.287726 0.02778,0.287729 0.663985,0.05045 c 1.267356,0.0963 1.150905,0.118066 1.150905,-0.215183 z m 0,-1.694432 v -0.309861 h -0.652914 c -1.008028,0 -1.20624,0.06001 -1.20624,0.365194 v 0.254526 h 0.929577 0.929577 z m 0,-1.629409 v -0.345703 l -0.331988,0.03381 c -0.1826,0.01861 -0.600911,0.05782 -0.929587,0.08715 -0.589163,0.0526 -0.597579,0.05698 -0.597579,0.311891 v 0.258551 h 0.929577 0.929577 z m -0.509052,-1.300386 0.509052,-0.05641 v -0.311693 -0.311693 l -0.420525,0.05881 c -0.231282,0.03235 -0.649603,0.08328 -0.929577,0.113177 l -0.509052,0.05437 v 0.305558 0.305557 l 0.420514,-0.05063 c 0.231293,-0.02784 0.649613,-0.07601 0.929588,-0.107041 z m -0.243461,-1.570115 0.708249,-0.104294 0.02819,-0.342819 c 0.02624,-0.319048 0.01394,-0.339386 -0.177065,-0.29336 -0.112863,0.02721 -0.464153,0.09402 -0.780651,0.148495 -0.864278,0.148749 -0.885323,0.159443 -0.885323,0.449947 0,0.301103 0.01415,0.302917 1.106652,0.142031 z m -0.02214,-1.615774 0.774644,-0.15002 v -0.330222 -0.330224 l -0.929577,0.228386 -0.929587,0.22839 v 0.296978 c 0,0.241007 0.02921,0.288475 0.154933,0.251856 0.08518,-0.02483 0.503527,-0.112633 0.929587,-0.195144 z m -0.434158,-1.49324 c 0.250953,-0.0704 0.625605,-0.171539 0.832541,-0.224742 0.351557,-0.09038 0.376261,-0.116848 0.376261,-0.403179 0,-0.168545 -0.02993,-0.305577 -0.06643,-0.304516 -0.03649,9.95e-4 -0.444871,0.112364 -0.907455,0.247335 -0.822178,0.239891 -0.841665,0.251769 -0.868789,0.529256 -0.03188,0.326299 -10e-4,0.333918 0.633837,0.155846 z m 0.965342,-1.877067 c 0.213569,-0.04673 0.24346,-0.09462 0.24346,-0.389922 v -0.336639 l -0.929577,0.311282 -0.929587,0.311283 v 0.295164 0.295164 l 0.686117,-0.216525 c 0.377368,-0.119087 0.795679,-0.240503 0.929587,-0.269807 z m -0.648485,-1.413898 c 0.891218,-0.320106 0.891945,-0.320615 0.891945,-0.61972 0,-0.164644 -0.0288,-0.29935 -0.06397,-0.29935 -0.03516,0 -0.453481,0.148719 -0.929577,0.330488 -0.851044,0.32493 -0.865611,0.335357 -0.865611,0.619723 0,0.159077 0.01691,0.289229 0.03762,0.289229 0.02071,0 0.439008,-0.144165 0.929588,-0.32037 z m 1.511359,22.329562 c -0.04715,-1.383824 -0.01948,-24.66514 0.02932,-24.66514 0.04029,0 0.677719,0.263085 1.416509,0.584633 1.91732,0.834491 2.11647,0.920405 2.13351,0.920405 0.008,0 -0.002,-0.140789 -0.0213,-0.312865 -0.0303,-0.259394 -0.0896,-0.335052 -0.34716,-0.442659 -0.4185,-0.174859 -0.46608,-0.165707 -0.46608,0.08963 0,0.201932 -0.0176,0.211389 -0.22132,0.118589 l -0.22134,-0.100849 v -1.574442 -1.574446 l 1.26158,0.785448 1.26157,0.785451 0.0229,12.213997 0.0229,12.213988 -0.1999,0.04767 c -0.10996,0.02624 -0.95686,0.190735 -1.88202,0.365616 -0.92515,0.174902 -1.93108,0.371126 -2.23541,0.436066 -0.30433,0.06489 -0.553472,0.11396 -0.553636,0.108937 z m 1.350409,-1.33345 c 0.21754,-0.04582 0.24346,-0.0898 0.24346,-0.413186 0,-0.293638 -0.0263,-0.351771 -0.14004,-0.308164 -0.077,0.02952 -0.25629,0.05371 -0.39838,0.05371 -0.24636,0 -0.25835,0.01814 -0.25835,0.39011 0,0.417922 -0.0335,0.401131 0.55331,0.277514 z m 1.26882,-0.224968 c 0.0845,0 0.12556,-0.101382 0.12556,-0.309855 0,-0.285264 -0.0211,-0.309856 -0.26559,-0.309856 -0.252,0 -0.2656,0.01866 -0.2656,0.363591 0,0.295176 0.0264,0.353484 0.14003,0.309866 0.077,-0.02952 0.19654,-0.05372 0.2656,-0.05372 z m 0.90633,-0.427485 c 0.0253,-0.263911 0.007,-0.29164 -0.17705,-0.265582 -0.1606,0.02276 -0.21149,0.09328 -0.23359,0.323766 -0.0253,0.263921 -0.007,0.29165 0.17706,0.265602 0.1606,-0.02276 0.21148,-0.09328 0.23358,-0.323786 z m 0.63574,-0.05946 c 0,-0.216408 -0.0401,-0.309855 -0.13281,-0.309855 -0.0928,0 -0.13279,0.09349 -0.13279,0.309855 0,0.216408 0.0401,0.309856 0.13279,0.309856 0.0928,0 0.13281,-0.09349 0.13281,-0.309856 z m -2.56743,-0.872735 v -0.367979 l -0.39838,0.03168 -0.39839,0.03167 v 0.367979 0.367988 l 0.39839,-0.03167 0.39838,-0.03167 z m 1.13452,-0.173938 c 0.0267,-0.324228 0.0174,-0.337236 -0.22133,-0.309866 -0.21887,0.02511 -0.25258,0.06971 -0.27705,0.366994 -0.0267,0.324217 -0.0174,0.337226 0.22132,0.309856 0.21886,-0.02511 0.25258,-0.06971 0.27706,-0.366984 z m 0.79666,-0.03854 c 0.0247,-0.256223 0.004,-0.287006 -0.1992,-0.287006 -0.19016,0 -0.22693,0.0407 -0.22693,0.250841 0,0.29167 0.07,0.385231 0.26127,0.349086 0.0827,-0.01568 0.14812,-0.139741 0.16486,-0.312921 z m 0.68051,-0.06571 c 0,-0.180252 -0.0488,-0.272572 -0.15493,-0.293013 -0.12469,-0.02399 -0.15493,0.03321 -0.15493,0.293013 0,0.259811 0.0302,0.317011 0.15493,0.293003 0.10611,-0.0205 0.15493,-0.11275 0.15493,-0.293003 z m -2.61169,-0.929566 v -0.35413 h -0.39838 -0.39839 v 0.35413 0.354119 h 0.39839 0.39838 z m 1.15092,-0.142847 c 0,-0.274111 -0.0228,-0.29982 -0.26559,-0.29982 -0.24885,0 -0.2656,0.02132 -0.2656,0.338804 0,0.326073 0.0103,0.337318 0.2656,0.29981 0.23514,-0.03444 0.26559,-0.0734 0.26559,-0.338794 z m 0.78026,-0.05638 c -0.0211,-0.219462 -0.0697,-0.287723 -0.2048,-0.287723 -0.13506,0 -0.18365,0.06827 -0.20481,0.287723 -0.0249,0.258632 -0.004,0.287724 0.20481,0.287724 0.20902,0 0.22974,-0.02911 0.2048,-0.287724 z m 0.67165,-0.02214 c 0,-0.17891 -0.0488,-0.274284 -0.1505,-0.293864 -0.11944,-0.02296 -0.1505,0.03772 -0.1505,0.293864 0,0.256202 0.0311,0.316857 0.1505,0.293854 0.10169,-0.01958 0.1505,-0.114954 0.1505,-0.293854 z m -2.60283,-1.018118 v -0.354124 h -0.39838 -0.39839 v 0.354124 0.354128 h 0.39839 0.39838 z m 1.13413,-0.11066 c 0.0262,-0.317305 0.0155,-0.331996 -0.24346,-0.331996 -0.25781,0 -0.27094,0.01743 -0.27094,0.360006 0,0.340505 0.0132,0.358489 0.24346,0.331996 0.21137,-0.02434 0.24708,-0.07178 0.27094,-0.360006 z m 0.81357,-0.02826 c 0,-0.277085 -0.0245,-0.312536 -0.19919,-0.287729 -0.15268,0.02167 -0.20568,0.09549 -0.22694,0.316017 -0.0248,0.257003 -0.004,0.287729 0.1992,0.287729 0.20117,0 0.22693,-0.03585 0.22693,-0.316017 z m 0.66399,0.0061 c 0,-0.180246 -0.0488,-0.272573 -0.15493,-0.293005 -0.12469,-0.02402 -0.15493,0.03318 -0.15493,0.293005 0,0.259814 0.0302,0.317017 0.15493,0.293005 0.10611,-0.02046 0.15493,-0.112758 0.15493,-0.293005 z m -2.61169,-1.10665 v -0.354128 h -0.39838 -0.39839 v 0.354128 0.354129 h 0.39839 0.39838 z m 1.15092,-0.04426 c 0,-0.285267 -0.0211,-0.30986 -0.26559,-0.30986 -0.24453,0 -0.2656,0.02459 -0.2656,0.30986 0,0.28527 0.0211,0.309863 0.2656,0.309863 0.24451,0 0.26559,-0.02459 0.26559,-0.309863 z m 0.79678,0 c 0,-0.271495 -0.0275,-0.30986 -0.22132,-0.30986 -0.19393,0 -0.22133,0.03837 -0.22133,0.30986 0,0.271497 0.0274,0.309863 0.22133,0.309863 0.19391,0 0.22132,-0.03837 0.22132,-0.309863 z m 0.66399,0 c 0,-0.18025 -0.0488,-0.272568 -0.15493,-0.293006 -0.12469,-0.02402 -0.15493,0.03319 -0.15493,0.293006 0,0.259816 0.0302,0.31702 0.15493,0.293009 0.10611,-0.02044 0.15493,-0.112756 0.15493,-0.293009 z m -2.61169,-1.195172 v -0.354129 h -0.39838 -0.39839 v 0.354129 0.354122 h 0.39839 0.39838 z m 1.10665,0 c 0,-0.272219 -0.0295,-0.313265 -0.24346,-0.337877 -0.23084,-0.02656 -0.24346,-0.009 -0.24346,0.337877 0,0.346918 0.0126,0.364431 0.24346,0.33787 0.21389,-0.02459 0.24346,-0.06566 0.24346,-0.33787 z m 0.82453,0.02141 c 0.0247,-0.256223 0.004,-0.287003 -0.1992,-0.287003 -0.19016,0 -0.22693,0.04064 -0.22693,0.250839 0,0.291671 0.07,0.385237 0.26127,0.349086 0.0827,-0.01563 0.14812,-0.139735 0.16486,-0.312922 z m 0.70825,0 c 0.0232,-0.239884 -0.002,-0.287003 -0.15493,-0.287003 -0.15046,0 -0.18267,0.05579 -0.18267,0.316351 0,0.253449 0.0309,0.310516 0.15493,0.287004 0.10199,-0.01933 0.1644,-0.127332 0.18267,-0.316352 z m -0.0278,-1.128053 c 0,-0.180249 -0.0488,-0.272571 -0.15493,-0.293005 -0.12468,-0.02403 -0.15493,0.03319 -0.15493,0.293005 0,0.259817 0.0302,0.317018 0.15493,0.293006 0.10611,-0.02044 0.15493,-0.112755 0.15493,-0.293006 z m -2.61168,-0.132795 v -0.354128 h -0.39839 -0.39839 v 0.354128 0.354125 h 0.39839 0.39839 z m 1.15091,0.04426 c 0,-0.208471 -0.0411,-0.309861 -0.12556,-0.309861 -0.0691,0 -0.18857,-0.02419 -0.26559,-0.05373 -0.11368,-0.04363 -0.14004,0.01469 -0.14004,0.309859 0,0.344978 0.0136,0.363598 0.2656,0.363598 0.24451,0 0.26559,-0.02459 0.26559,-0.309859 z m 0.78026,0.02212 c -0.0211,-0.219459 -0.0697,-0.287726 -0.2048,-0.287726 -0.13505,0 -0.18365,0.06826 -0.20481,0.287726 -0.0249,0.258632 -0.004,0.287729 0.20481,0.287729 0.20902,0 0.22974,-0.02911 0.2048,-0.287729 z m 0.72477,-1.134001 c 0,-0.201347 -0.0401,-0.260369 -0.17705,-0.260369 -0.1366,0 -0.17707,0.05902 -0.17707,0.258217 0,0.242046 0.13723,0.38516 0.28773,0.300066 0.0365,-0.02065 0.0664,-0.154709 0.0664,-0.297914 z m -1.5493,-0.09068 c 0,-0.264169 -0.0308,-0.306032 -0.24346,-0.330499 -0.22447,-0.02583 -0.24346,-0.0039 -0.24346,0.281238 0,0.220289 0.0445,0.320738 0.15494,0.349186 0.26807,0.0691 0.33198,0.01138 0.33198,-0.299925 z m 0.84105,0.04548 c 0,-0.276693 -0.0247,-0.312497 -0.19829,-0.287726 -0.33999,0.04851 -0.32303,0.603746 0.0185,0.603746 0.14717,0 0.17984,-0.05739 0.17984,-0.31602 z m -1.94769,-0.117726 v -0.345169 l -0.39839,-0.03169 -0.39839,-0.03168 v 0.376895 0.376895 h 0.39839 0.39839 z m 2.63943,-0.967443 c 0.0231,-0.233731 -0.003,-0.280911 -0.15493,-0.280911 -0.14157,0 -0.18268,0.05645 -0.18268,0.250839 0,0.467377 0.29185,0.493373 0.33761,0.03009 z m -0.69174,-0.05959 c 0,-0.271496 -0.0275,-0.309859 -0.22132,-0.309859 -0.18401,0 -0.22133,0.0423 -0.22133,0.250842 0,0.292905 0.0577,0.368881 0.28035,0.368881 0.12647,0 0.1623,-0.06842 0.1623,-0.309864 z m -0.79678,-0.0782 c 0,-0.235791 -0.0424,-0.310894 -0.1992,-0.352918 -0.31892,-0.08546 -0.33199,-0.07371 -0.33199,0.298326 0,0.334454 0.0148,0.354126 0.2656,0.354126 0.24277,0 0.26559,-0.02573 0.26559,-0.299534 z m -1.15091,-0.143123 c 0,-0.332248 -0.016,-0.354128 -0.25835,-0.354128 -0.1421,0 -0.32138,-0.02419 -0.3984,-0.05374 -0.11521,-0.04421 -0.14003,0.01856 -0.14003,0.354129 v 0.407864 h 0.39839 0.39839 z m 2.65594,-0.89054 c 0,-0.20135 -0.0401,-0.260372 -0.17705,-0.260372 -0.1366,0 -0.17707,0.05902 -0.17707,0.25822 0,0.242042 0.13723,0.38516 0.28773,0.300066 0.0365,-0.02065 0.0664,-0.154712 0.0664,-0.297914 z m -0.70825,-0.08853 c 0,-0.243398 -0.04,-0.274245 -0.33199,-0.256291 -0.0993,0.0062 -0.0191,0.473494 0.0934,0.5434 0.15427,0.09594 0.23862,-0.0055 0.23862,-0.287109 z m -0.81198,-0.133074 c -0.0214,-0.18308 -0.0917,-0.264989 -0.26693,-0.31149 -0.29864,-0.07922 -0.31051,-0.06546 -0.26676,0.309319 0.027,0.231166 0.0831,0.31546 0.226,0.339218 0.26106,0.04342 0.34183,-0.04505 0.30769,-0.337047 z m -1.19607,-0.39303 c -0.0398,-0.03593 -0.22184,-0.08794 -0.40443,-0.115564 l -0.33199,-0.05023 v 0.387736 0.387737 l 0.37626,0.02724 c 0.3692,0.0267 0.37678,0.02161 0.40443,-0.272173 0.0155,-0.164667 -0.004,-0.328792 -0.0443,-0.364729 z m 2.7163,-0.536276 c 0,-0.20135 -0.0401,-0.260372 -0.17705,-0.260372 -0.1366,0 -0.17707,0.05903 -0.17707,0.258217 0,0.242045 0.13723,0.385164 0.28773,0.300067 0.0365,-0.02065 0.0664,-0.15471 0.0664,-0.297912 z m -0.72477,-0.105442 c -0.0212,-0.220527 -0.0742,-0.294334 -0.22694,-0.316016 -0.17465,-0.0248 -0.19919,0.01064 -0.19919,0.287729 0,0.280147 0.0257,0.316017 0.22693,0.316017 0.2027,0 0.22398,-0.03071 0.1992,-0.28773 z m -0.78026,-0.100336 c 0,-0.235792 -0.0424,-0.310894 -0.1992,-0.352917 -0.31892,-0.08546 -0.33199,-0.07372 -0.33199,0.298325 0,0.334454 0.0148,0.354129 0.2656,0.354129 0.24277,0 0.26559,-0.02573 0.26559,-0.299537 z m -1.15091,-0.145899 c 0,-0.371786 -0.0192,-0.389628 -0.50906,-0.474273 l -0.28772,-0.04972 v 0.390835 c 0,0.386435 0.004,0.391223 0.33199,0.42556 0.18259,0.01911 0.36187,0.04142 0.3984,0.04962 0.0365,0.0082 0.0664,-0.145725 0.0664,-0.342022 z m 2.65594,-0.749741 c 0,-0.250839 -0.0337,-0.309861 -0.17705,-0.309861 -0.1366,0 -0.17707,0.05903 -0.17707,0.258216 0,0.230438 0.0832,0.332989 0.28773,0.354514 0.0365,0.0039 0.0664,-0.132447 0.0664,-0.302869 z m -0.72477,-0.154931 c -0.0201,-0.208574 -0.0765,-0.294712 -0.2048,-0.313119 -0.14876,-0.02135 -0.17462,0.02115 -0.16175,0.265595 0.008,0.160043 0.0183,0.300946 0.0221,0.313119 0.004,0.01218 0.089,0.02215 0.18949,0.02215 0.15276,0 0.17813,-0.04711 0.15492,-0.28773 z m -0.79992,-0.164504 c -0.008,-0.271199 -0.05,-0.312556 -0.371,-0.362479 -0.13903,-0.02162 -0.16963,0.02864 -0.17102,0.280956 -0.002,0.252067 0.037,0.317182 0.2136,0.362312 0.29223,0.07468 0.33742,0.03604 0.32842,-0.280789 z m -1.13125,-0.165801 c 0,-0.312323 -0.0277,-0.358606 -0.24346,-0.406618 -0.13391,-0.02982 -0.31565,-0.07387 -0.40385,-0.09792 -0.1397,-0.03809 -0.15684,0.0058 -0.13281,0.340223 0.0294,0.409479 -0.0165,0.376921 0.71373,0.505103 0.0365,0.0064 0.0664,-0.146946 0.0664,-0.340787 z m 2.65594,-0.709937 c 0,-0.206573 -0.0394,-0.265595 -0.17705,-0.265595 -0.13772,0 -0.17707,0.05903 -0.17707,0.265595 0,0.206574 0.0394,0.265594 0.17707,0.265594 0.13771,0 0.17705,-0.05903 0.17705,-0.265594 z m -0.70825,-0.122473 c 0,-0.222102 -0.0444,-0.311158 -0.17193,-0.344494 -0.0946,-0.02473 -0.19416,-0.02272 -0.22133,0.0044 -0.095,0.09499 -0.0484,0.536714 0.0613,0.580972 0.25815,0.104157 0.33199,0.05057 0.33199,-0.240903 z m -0.88531,-0.177914 c 0,-0.287789 -0.11316,-0.407866 -0.38435,-0.407866 -0.15496,0 -0.12815,0.563867 0.0302,0.635631 0.27427,0.124282 0.35413,0.07291 0.35413,-0.227765 z m -1.06238,-0.226643 c 0,-0.32899 -0.0199,-0.355487 -0.332,-0.442164 -0.47564,-0.132093 -0.47769,-0.130797 -0.44774,0.28265 0.0244,0.337485 0.0543,0.381583 0.29282,0.432182 0.47618,0.101024 0.48692,0.09501 0.48692,-0.272668 z m 2.65594,-0.579614 c 0,-0.250838 -0.0337,-0.30986 -0.17705,-0.30986 -0.1366,0 -0.17707,0.05903 -0.17707,0.258216 0,0.230435 0.0832,0.332988 0.28773,0.354514 0.0365,0.0039 0.0664,-0.132447 0.0664,-0.30287 z m -0.70825,-0.177064 c 0,-0.216411 -0.0401,-0.309857 -0.1328,-0.309857 -0.073,0 -0.15918,-0.0099 -0.19145,-0.02215 -0.12609,-0.04757 -0.0734,0.48136 0.0555,0.556828 0.22703,0.132956 0.26879,0.09803 0.26879,-0.224836 z m -0.86788,-0.260222 c -0.0203,-0.173376 -0.0623,-0.315775 -0.0935,-0.31644 -0.0312,-6.81e-4 -0.14908,-0.02593 -0.26196,-0.05618 -0.19167,-0.05133 -0.20339,-0.03242 -0.17707,0.28544 0.0231,0.277959 0.0688,0.350669 0.24951,0.396353 0.30285,0.07655 0.32521,0.05214 0.28303,-0.309178 z m -1.07977,-0.212655 c 0,-0.318132 -0.0221,-0.34674 -0.34227,-0.442659 -0.46659,-0.139796 -0.45451,-0.146411 -0.45451,0.249052 0,0.320608 0.0254,0.358916 0.28772,0.434672 0.47896,0.138292 0.50906,0.124039 0.50906,-0.241065 z m 2.65594,-0.500938 c 0,-0.250838 -0.0337,-0.30986 -0.17705,-0.30986 -0.23649,0 -0.25619,0.497528 -0.0221,0.558695 0.0852,0.02225 0.16488,0.0451 0.17706,0.05075 0.0122,0.0056 0.0221,-0.129168 0.0221,-0.299591 z m -0.70827,-0.21533 c 0,-0.185017 -0.0528,-0.276386 -0.18373,-0.317944 -0.24234,-0.07691 -0.27084,-0.03534 -0.2042,0.297838 0.0766,0.382691 0.38793,0.398828 0.38793,0.02011 z m -0.88532,-0.230146 c 0,-0.242969 -0.0444,-0.329504 -0.19919,-0.387997 -0.10956,-0.04141 -0.22907,-0.05769 -0.2656,-0.03619 -0.13144,0.07739 -0.066,0.551256 0.0886,0.641276 0.28122,0.163797 0.37625,0.108961 0.37625,-0.217091 z m -1.06237,-0.292996 c 0,-0.318128 -0.0221,-0.34674 -0.34227,-0.442655 -0.4666,-0.139796 -0.45451,-0.146415 -0.45451,0.249048 0,0.320607 0.0254,0.358916 0.28772,0.434672 0.47896,0.138297 0.50906,0.124043 0.50906,-0.241065 z m 2.65594,-0.402081 c 0,-0.225077 -0.044,-0.311042 -0.17706,-0.345837 -0.15091,-0.03946 -0.17706,-0.0027 -0.17706,0.248778 0,0.206586 0.0464,0.307223 0.15493,0.335567 0.0852,0.02229 0.16489,0.04511 0.17706,0.05076 0.0122,0.0056 0.0221,-0.124524 0.0221,-0.289268 z m -0.72477,-0.253787 c -0.0212,-0.220526 -0.0743,-0.294334 -0.22694,-0.316016 -0.16732,-0.02375 -0.19919,0.01281 -0.19919,0.228708 0,0.300732 0.0567,0.375038 0.28596,0.375038 0.13611,0 0.16266,-0.05449 0.14017,-0.28773 z m -0.88523,-0.555006 c -0.0155,-0.01549 -0.13766,-0.05566 -0.27147,-0.08925 -0.2309,-0.05795 -0.24328,-0.04517 -0.24328,0.251019 0,0.2616 0.0394,0.325312 0.24346,0.393884 0.23171,0.07786 0.24481,0.06711 0.27147,-0.222832 0.0154,-0.167548 0.0154,-0.317323 -1.8e-4,-0.332824 z m -1.04594,-0.02858 c 0,-0.318132 -0.0221,-0.34674 -0.34227,-0.44266 -0.4666,-0.139795 -0.45451,-0.14641 -0.45451,0.249053 0,0.320607 0.0254,0.358916 0.28772,0.434672 0.47896,0.138292 0.50906,0.124042 0.50906,-0.241065 z m 2.65594,-0.313548 c 0,-0.22508 -0.044,-0.311043 -0.17706,-0.345839 -0.15091,-0.03947 -0.17706,-0.0027 -0.17706,0.24878 0,0.206584 0.0464,0.30722 0.15493,0.335564 0.0852,0.02226 0.16489,0.04511 0.17706,0.05076 0.0122,0.0056 0.0221,-0.124522 0.0221,-0.289266 z m -0.70825,-0.228543 c 0,-0.171871 -0.0611,-0.295191 -0.17706,-0.35724 -0.18992,-0.101639 -0.20685,-0.07636 -0.17796,0.265595 0.0239,0.282991 0.0696,0.354128 0.22745,0.354128 0.0824,0 0.12757,-0.09297 0.12757,-0.262483 z m -0.88532,-0.315826 c 0,-0.242969 -0.0444,-0.329505 -0.19919,-0.387998 -0.26586,-0.10048 -0.33199,-0.04747 -0.33199,0.26613 0,0.190228 0.0553,0.285428 0.19919,0.343291 0.31119,0.125079 0.33199,0.111204 0.33199,-0.221423 z m -1.06237,-0.381527 c 0,-0.318128 -0.0221,-0.34674 -0.34227,-0.442655 -0.46628,-0.139705 -0.45451,-0.146029 -0.45451,0.244203 0,0.297694 0.0344,0.359325 0.24346,0.435666 0.46754,0.170763 0.55332,0.133987 0.55332,-0.237214 z m 2.55185,-0.556696 c -0.20281,-0.128586 -0.25003,-0.08584 -0.25003,0.226332 0,0.218258 0.0435,0.311941 0.15493,0.333932 0.19326,0.03812 0.27543,-0.445935 0.0951,-0.560264 z m -0.60416,0.06524 c 0,-0.279635 -0.11361,-0.407863 -0.36136,-0.407863 -0.14951,0 -0.0871,0.518993 0.0736,0.61263 0.24663,0.143654 0.28772,0.114408 0.28772,-0.204767 z m -0.98985,-0.685223 c -0.268,-0.169934 -0.42665,-0.08599 -0.42665,0.225716 0,0.25113 0.0413,0.316372 0.24346,0.384288 0.23215,0.078 0.24478,0.06745 0.27172,-0.227076 0.017,-0.186641 -0.0179,-0.338181 -0.0886,-0.382928 z m -1.01821,-0.345817 c -0.0398,-0.03775 -0.22183,-0.130072 -0.40443,-0.205144 l -0.33198,-0.136494 v 0.386499 c 0,0.375905 0.0104,0.389952 0.37625,0.512565 l 0.37626,0.126071 0.0282,-0.307421 c 0.0155,-0.169082 -0.004,-0.338316 -0.0443,-0.376076 z m 2.9819,-0.159397 c 0,-0.185523 -0.061,-0.27917 -0.23276,-0.357441 -0.26796,-0.122089 -0.2559,-0.128703 -0.33007,0.180973 -0.0481,0.200697 -0.0201,0.249473 0.18674,0.325004 0.35994,0.131474 0.37609,0.125093 0.37609,-0.148536 z m 0,-1.162848 c 0,-0.202052 -0.0608,-0.29475 -0.26119,-0.398391 -0.33383,-0.172634 -0.31562,-0.181119 -0.30605,0.142526 0.007,0.253416 0.1441,0.381714 0.54512,0.511996 0.0122,0.0039 0.0221,-0.111303 0.0221,-0.256131 z m -0.97384,-0.487396 c 0,-0.269758 -0.0436,-0.330302 -0.3506,-0.486924 -0.19282,-0.09838 -0.36214,-0.178889 -0.37626,-0.178915 -0.0141,-3.1e-5 -0.0219,0.149365 -0.0174,0.33199 0.007,0.285756 0.0502,0.353055 0.30987,0.482726 0.41512,0.207322 0.4345,0.200684 0.4345,-0.148877 z m -8.144904,9.781442 V -81.91637 l 1.173048,0.722327 c 0.645174,0.397283 1.302517,0.799381 1.460761,0.893553 l 0.287734,0.171225 v 1.488468 1.488466 l -0.619722,0.243139 -0.619721,0.243139 v 11.525967 11.525949 l -0.730381,0.1021 c -0.401714,0.05617 -0.780189,0.101997 -0.841049,0.101997 -0.08806,-8.2e-5 -0.11067,-2.909791 -0.11067,-14.253166 z m 1.217311,13.092511 c 0.16174,-0.06048 0.199197,-0.142273 0.199197,-0.434825 v -0.360331 l -0.331998,0.05987 c -0.460975,0.08313 -0.464788,0.08754 -0.464788,0.534761 0,0.433072 -0.01271,0.428808 0.597589,0.200499 z m 0.124355,-1.459582 c 0.04111,-0.02542 0.07483,-0.203266 0.07483,-0.395154 0,-0.372209 -0.0327,-0.39106 -0.511964,-0.295193 -0.244567,0.0489 -0.271312,0.08908 -0.300066,0.450629 l -0.03157,0.396937 0.346954,-0.05546 c 0.190822,-0.03055 0.380639,-0.07627 0.421796,-0.101689 z m -0.168618,-1.401497 c 0.215741,-0.04805 0.24346,-0.0943 0.24346,-0.406623 0,-0.330385 -0.0162,-0.352439 -0.258355,-0.352439 -0.458751,0 -0.538431,0.07434 -0.538431,0.502361 0,0.33306 0.02429,0.388313 0.154933,0.352886 0.08518,-0.02307 0.264485,-0.06643 0.398393,-0.09615 z m -0.03321,-1.434117 c 0.260476,-0.05209 0.276663,-0.07854 0.276663,-0.452128 0,-0.325453 -0.02522,-0.387138 -0.140039,-0.34306 -0.07698,0.02954 -0.256294,0.05374 -0.398393,0.05374 -0.247171,0 -0.258354,0.01723 -0.258354,0.398391 0,0.427091 0.02327,0.442435 0.520123,0.343059 z m 0.0775,-1.448496 c 0.17688,-9.95e-4 0.199196,-0.04583 0.199196,-0.399598 0,-0.354487 -0.02194,-0.398261 -0.199196,-0.397185 -0.500503,0.0031 -0.59759,0.0853 -0.59759,0.506367 0,0.369943 0.01425,0.394583 0.199197,0.345011 0.109562,-0.02935 0.288831,-0.05393 0.398393,-0.05459 z m 0.199196,-1.816102 v -0.398401 h -0.389474 -0.389475 l -0.03167,0.398393 -0.03168,0.398391 h 0.421161 0.42116 z m -0.140038,-1.071852 c 0.09451,-0.03627 0.140038,-0.165781 0.140038,-0.398393 v -0.344653 H 96.2527 95.83154 l 0.03167,0.39839 c 0.02942,0.370407 0.04921,0.398393 0.281122,0.398393 0.137189,0 0.31246,-0.02419 0.389485,-0.05374 z m 0.140038,-1.795953 c 0,-0.373769 -0.09328,-0.452132 -0.538431,-0.452132 -0.247171,0 -0.258355,0.01723 -0.258355,0.398394 v 0.39839 h 0.398393 0.398393 z m -0.01702,-1.448111 c -0.02706,-0.37443 -0.02901,-0.37639 -0.403488,-0.40348 l -0.376261,-0.02724 v 0.403481 0.403482 h 0.403488 0.403477 z m 0.01702,-1.438636 c 0,-0.35377 -0.02224,-0.398527 -0.199196,-0.399601 -0.109562,-6.8e-4 -0.288831,-0.02523 -0.398393,-0.05459 -0.185173,-0.04963 -0.199197,-0.02506 -0.199197,0.348842 0,0.428225 0.04941,0.472211 0.553326,0.493473 0.231047,0.0097 0.24346,-0.01005 0.24346,-0.388122 z m 0,-1.405438 c 0,-0.362979 -0.01743,-0.390806 -0.276663,-0.442659 -0.496033,-0.09921 -0.520123,-0.08357 -0.520123,0.337716 0,0.388995 0.0041,0.393405 0.331998,0.427776 0.1826,0.01911 0.361869,0.04142 0.398393,0.0496 0.03649,0.0082 0.06643,-0.159413 0.06643,-0.372442 z m 0,-1.425888 c 0,-0.360612 -0.02214,-0.401632 -0.24346,-0.450883 -0.133908,-0.02982 -0.313187,-0.07309 -0.398393,-0.09618 -0.130997,-0.03552 -0.154933,0.02017 -0.154933,0.360669 0,0.426103 -0.03229,0.396597 0.575458,0.525124 0.09738,0.02057 0.187019,0.04207 0.199197,0.04772 0.0122,0.0056 0.02214,-0.168247 0.02214,-0.386438 z m 0,-1.457228 c 0,-0.395975 -0.0122,-0.408934 -0.465465,-0.493965 l -0.331321,-0.06215 v 0.402087 c 0,0.424611 0.03957,0.457102 0.59759,0.490876 0.174912,0.01057 0.199196,-0.03048 0.199196,-0.336842 z m 0,-1.423923 c 0,-0.370246 -0.01732,-0.386579 -0.602745,-0.569047 -0.196296,-0.06118 -0.203287,-0.04682 -0.177065,0.363983 0.02522,0.395205 0.04746,0.431951 0.29289,0.484054 0.476977,0.101249 0.48692,0.09555 0.48692,-0.27899 z m 0,-1.444565 c 0,-0.369517 -0.01322,-0.388345 -0.342269,-0.486924 -0.468765,-0.140447 -0.454517,-0.149449 -0.454517,0.287053 0,0.375504 0.01199,0.392786 0.331998,0.477774 0.1826,0.0485 0.361869,0.0923 0.398393,0.09732 0.03649,0.005 0.06643,-0.16382 0.06643,-0.375229 z m 0,-1.422195 c 0,-0.383848 -0.0062,-0.392264 -0.403088,-0.527418 l -0.403088,-0.137347 0.02686,0.409315 c 0.02481,0.378498 0.05013,0.417695 0.336693,0.52068 0.445773,0.16022 0.442656,0.162087 0.442656,-0.26523 z m 1.150916,-0.965775 c 0,-0.248218 -0.04777,-0.31624 -0.309866,-0.441223 l -0.309855,-0.147763 v 0.335604 c 0,0.283767 0.03762,0.350462 0.24346,0.431809 0.364637,0.144082 0.376261,0.13857 0.376261,-0.178427 z m -1.150916,-0.449441 c 0,-0.371264 -0.01599,-0.395195 -0.355923,-0.531189 -0.195752,-0.07833 -0.375031,-0.14241 -0.398383,-0.14241 -0.02337,0 -0.04254,0.175957 -0.04254,0.391016 0,0.406083 0.02522,0.427708 0.774654,0.664373 0.0122,0.0039 0.02214,-0.167963 0.02214,-0.38179 z m 1.150916,-0.936921 c 0,-0.202051 -0.06079,-0.294746 -0.261204,-0.398391 -0.351864,-0.18196 -0.358517,-0.178855 -0.358517,0.167411 0,0.249406 0.04275,0.318087 0.24346,0.391403 0.361336,0.131973 0.376261,0.125609 0.376261,-0.160423 z m -1.167953,-0.538307 c -0.02491,-0.327581 -0.06017,-0.373653 -0.403487,-0.52686 l -0.376262,-0.16789 v 0.39381 c 0,0.359465 0.02511,0.404782 0.287734,0.51964 0.468571,0.204916 0.522327,0.181025 0.492015,-0.2187 z m -2.970898,25.396614 -1.261575,-0.4485 0.002,-13.290547 0.002,-13.290556 1.253067,-0.53119 c 0.68918,-0.292152 1.286062,-0.544466 1.326389,-0.560698 0.04039,-0.01623 0.0733,6.407839 0.0733,14.275711 0,7.867872 -0.02993,14.302757 -0.06643,14.299744 -0.03649,-0.0031 -0.634113,-0.207275 -1.327978,-0.453964 z m 0.863179,-1.219248 c 0,-0.338272 -0.01333,-0.354171 -0.376261,-0.448326 -0.206934,-0.05371 -0.515693,-0.134677 -0.686115,-0.179976 -0.439745,-0.116902 -0.442657,-0.115467 -0.442657,0.219124 0,0.296089 0.01363,0.30717 0.641854,0.524204 0.86117,0.297472 0.863179,0.297205 0.863179,-0.115026 z m -0.01702,-2.76685 -0.02727,-0.37309 -0.531192,-0.10997 c -0.292152,-0.06048 -0.63274,-0.111711 -0.756869,-0.113836 -0.204783,-0.0037 -0.222456,0.02381 -0.190801,0.294968 0.03362,0.287844 0.05812,0.305445 0.668342,0.479096 0.887249,0.252503 0.869371,0.256282 0.837747,-0.177168 z m 0.01702,-2.762227 v -0.390838 l -0.686115,-0.07137 c -0.377368,-0.03925 -0.723245,-0.07253 -0.768616,-0.07395 -0.04541,-0.0013 -0.08252,0.136253 -0.08252,0.305942 v 0.308522 l 0.702221,0.146638 c 0.386213,0.08065 0.73209,0.150972 0.768614,0.156265 0.03649,0.0053 0.06643,-0.166245 0.06643,-0.381208 z m 0,-2.783684 v -0.341517 l -0.544182,-0.05687 c -0.968077,-0.101188 -0.960851,-0.103381 -0.960851,0.292158 0,0.346293 0.0031,0.3493 0.376262,0.382925 0.206936,0.01864 0.545576,0.04085 0.75251,0.04935 l 0.376261,0.01546 z m -0.01702,-2.779224 c -0.01497,-0.206942 -0.0571,-0.366298 -0.09359,-0.354125 -0.03649,0.01218 -0.360833,0.02212 -0.720691,0.02212 h -0.654308 l -0.03578,0.306093 c -0.04162,0.356722 -0.0072,0.371387 0.928901,0.390105 l 0.602682,0.01205 z m 0.01702,-2.759783 v -0.391565 l -0.686115,0.04468 c -0.89908,0.05855 -0.880034,0.04901 -0.836795,0.419401 l 0.03721,0.319048 h 0.742835 0.742833 z m -0.110669,-2.401187 c 0.129613,-0.04065 0.153969,-0.748511 0.02573,-0.748511 -0.04664,0 -0.385334,0.04468 -0.75251,0.09929 l -0.667604,0.09929 v 0.348724 0.348725 l 0.641853,-0.05641 c 0.35301,-0.03102 0.691651,-0.07202 0.75251,-0.09111 z m -0.398383,-2.698115 0.509052,-0.09918 v -0.347848 c 0,-0.405968 -0.0092,-0.408201 -0.889965,-0.207958 l -0.615068,0.139896 v 0.354062 c 0,0.397493 -0.119044,0.37825 0.995981,0.161023 z m -0.08857,-2.705213 0.597587,-0.147414 v -0.387626 c 0,-0.213198 -0.01025,-0.386682 -0.02214,-0.385525 -0.0122,0.0013 -0.340844,0.09489 -0.730378,0.208303 l -0.708259,0.206195 -0.02757,0.374855 c -0.02409,0.326892 -0.0072,0.368697 0.132801,0.326738 0.08826,-0.02647 0.42931,-0.11445 0.757986,-0.195526 z m 0.581114,-3.310084 c 0.02081,-0.285484 -0.002,-0.36934 -0.08857,-0.336205 -0.06397,0.0243 -0.401612,0.135821 -0.750296,0.247861 -0.63027,0.202525 -0.634175,0.205724 -0.666763,0.547553 -0.01804,0.189109 -0.01866,0.357966 -0.0021,0.375232 0.01722,0.01726 0.357153,-0.07784 0.75531,-0.211346 l 0.72389,-0.242744 0.02778,-0.380351 z m 6.535514,3.105085 -0.69628,-0.329361 0.54135,-0.163905 c 0.53815,-0.162941 0.54134,-0.165875 0.54134,-0.497933 v -0.333984 l -0.66398,0.223243 c -0.58083,0.195287 -0.66399,0.249965 -0.66399,0.436576 0,0.246201 -0.005,0.2478 -0.309505,0.108852 -0.214399,-0.09768 -0.227622,-0.138857 -0.203358,-0.633165 l 0.02593,-0.528687 1.062393,-0.46834 c 0.5843,-0.257591 1.09226,-0.470655 1.12877,-0.473483 0.0365,-0.0027 0.0664,0.67213 0.0664,1.499899 0,0.827771 -0.0299,1.501584 -0.0664,1.497362 -0.0365,-0.0042 -0.37972,-0.155884 -0.76267,-0.337033 z"
       style="fill:#ffffff;stroke-width:0.0234239"
       id="path46807" />
    <path
       d="m 106.4851,-62.106967 v -12.202995 h 0.49566 0.49567 l 0.0232,-1.075502 0.0232,-1.075502 0.84998,0.667615 0.84999,0.667615 1.2114,-1.024097 c 0.66628,-0.563255 1.29849,-1.090218 1.40492,-1.171027 0.19319,-0.146702 0.19567,-0.145092 1.57346,1.019951 0.86083,0.727919 1.41787,1.143935 1.48072,1.10588 0.0554,-0.03356 0.44629,-0.335426 0.86862,-0.670827 l 0.76788,-0.609822 v 1.082859 1.082857 h 0.49808 0.49809 v 12.202995 12.203001 h -5.52041 -5.5204 z m 1.22473,0.518836 -0.021,-11.518132 -0.26979,-0.02601 -0.26981,-0.02601 v 11.54414 11.544146 h 0.29084 0.29084 z m 9.15196,-0.02077 v -11.538872 h -0.24904 -0.24905 v 11.538885 11.538885 h 0.24905 0.24904 z m -8.13533,10.293684 v -0.498084 h -0.24904 -0.24905 v 0.498084 0.498084 h 0.24905 0.24904 z m 1.41122,0.124518 c 0,-0.368019 -0.004,-0.373555 -0.2767,-0.373555 -0.1522,0 -0.29345,0.01671 -0.31391,0.03721 -0.0204,0.0205 -0.0228,0.188556 -0.005,0.373555 0.0306,0.320794 0.0451,0.336375 0.3139,0.336375 0.27868,0 0.28183,-0.0041 0.28183,-0.373565 z m 0.83014,0 v -0.373544 h -0.33205 -0.33205 v 0.373565 0.373555 h 0.33205 0.33205 z m 0.81416,0.02071 c -0.0248,-0.342453 -0.0346,-0.353555 -0.33683,-0.378567 l -0.3113,-0.02573 v 0.378567 0.378578 h 0.33683 0.33682 z m 1.09516,-0.02071 c 0,-0.371576 -10e-4,-0.373555 -0.29055,-0.373555 -0.28901,0 -0.29055,0.0021 -0.29055,0.373555 0,0.371587 10e-4,0.373566 0.29055,0.373566 0.28901,0 0.29055,-0.0021 0.29055,-0.373566 z m 0.83013,-0.0051 v -0.378568 l -0.3113,0.02573 c -0.30218,0.02501 -0.31205,0.03608 -0.33683,0.378578 l -0.0255,0.352797 h 0.33683 0.33682 z m 0.83013,0.0051 v -0.373544 h -0.33204 -0.33206 v 0.373565 0.373555 h 0.33206 0.33204 z m 1.32822,-0.124518 v -0.498084 h -0.24904 -0.24904 v 0.498084 0.498084 h 0.24904 0.24904 z m -7.13916,-1.328216 v -0.498082 h -0.24904 -0.24905 v 0.498082 0.498084 h 0.24905 0.24904 z m 1.41122,0.124521 c 0,-0.371585 -0.002,-0.373562 -0.29054,-0.373562 -0.28901,0 -0.29055,0.0018 -0.29055,0.373562 0,0.371584 0.002,0.373563 0.29055,0.373563 0.28901,0 0.29054,-0.0021 0.29054,-0.373563 z m 0.83014,0 v -0.373562 h -0.33205 -0.33205 v 0.373562 0.373563 h 0.33205 0.33205 z m 0.81416,0.02074 c -0.0248,-0.342461 -0.0346,-0.353562 -0.33683,-0.378574 l -0.3113,-0.02576 v 0.378569 0.378579 h 0.33683 0.33682 z m 1.09516,-0.02074 c 0,-0.371585 -10e-4,-0.373562 -0.29055,-0.373562 -0.28901,0 -0.29055,0.0018 -0.29055,0.373562 0,0.371584 10e-4,0.373563 0.29055,0.373563 0.28901,0 0.29055,-0.0021 0.29055,-0.373563 z m 0.83013,-0.005 v -0.378572 l -0.3113,0.02576 c -0.30218,0.025 -0.31205,0.03611 -0.33683,0.378571 l -0.0255,0.352816 h 0.33683 0.33682 z m 0.83013,0.005 v -0.373562 h -0.33204 -0.33206 v 0.373562 0.373563 h 0.33206 0.33204 z m 1.32822,-0.124521 v -0.498082 h -0.24904 -0.24904 v 0.498082 0.498084 h 0.24904 0.24904 z m -7.13916,-1.328217 v -0.498082 h -0.24904 -0.24905 v 0.498082 0.498081 h 0.24905 0.24904 z m 1.41122,0.124519 c 0,-0.368025 -0.004,-0.37356 -0.2767,-0.37356 -0.1522,0 -0.29345,0.01672 -0.31391,0.0372 -0.0204,0.02046 -0.0228,0.188559 -0.005,0.373559 0.0306,0.320796 0.0451,0.336367 0.3139,0.336367 0.27868,0 0.28183,-0.0042 0.28183,-0.373562 z m 0.83014,-0.005 v -0.378571 l -0.31129,0.02576 c -0.30218,0.025 -0.31206,0.0361 -0.33684,0.378571 l -0.0255,0.352805 h 0.33683 0.33683 z m 0.81416,0.02576 c -0.0248,-0.342464 -0.0346,-0.353565 -0.33683,-0.378571 l -0.3113,-0.02576 v 0.378571 0.37857 h 0.33683 0.33682 z m 1.09516,-0.02074 c 0,-0.371584 -10e-4,-0.373557 -0.29055,-0.373557 -0.28901,0 -0.29055,0.0018 -0.29055,0.373557 0,0.371589 10e-4,0.373565 0.29055,0.373565 0.28901,0 0.29055,-0.0018 0.29055,-0.373565 z m 0.83013,-0.005 v -0.378571 l -0.3113,0.02576 c -0.30218,0.025 -0.31205,0.03611 -0.33683,0.378571 l -0.0255,0.352808 h 0.33683 0.33682 z m 0.81415,0.02576 c -0.0248,-0.342461 -0.0346,-0.353562 -0.33682,-0.378571 l -0.3113,-0.02576 v 0.378571 0.378573 h 0.33682 0.33684 z m 1.3442,-0.145271 c 0,-0.494705 -0.002,-0.498081 -0.24167,-0.498081 -0.23691,0 -0.24222,0.0097 -0.26979,0.498232 l -0.0282,0.498232 0.26979,-1.66e-4 0.2698,-1.67e-4 v -0.498081 z m -7.13916,-1.328217 v -0.498082 h -0.24904 -0.24905 v 0.498081 0.498082 h 0.24905 0.24904 z m 1.41122,0.12452 c 0,-0.371584 -0.002,-0.37356 -0.29054,-0.37356 -0.28901,0 -0.29055,0.0018 -0.29055,0.37356 0,0.371586 0.002,0.373562 0.29055,0.373562 0.28901,0 0.29054,-0.0018 0.29054,-0.373562 z m 0.81417,0.02074 c -0.0248,-0.343003 -0.0336,-0.352808 -0.31608,-0.352808 -0.28248,0 -0.29126,0.0097 -0.31608,0.352808 l -0.0255,0.352808 h 0.3416 0.3416 z m 0.83013,0 c -0.0248,-0.34246 -0.0346,-0.353564 -0.33683,-0.378573 l -0.3113,-0.02576 v 0.37857 0.378574 h 0.33683 0.33682 z m 1.09516,-0.02074 c 0,-0.371584 -10e-4,-0.37356 -0.29055,-0.37356 -0.28901,0 -0.29055,0.0018 -0.29055,0.37356 0,0.371586 10e-4,0.373562 0.29055,0.373562 0.28901,0 0.29055,-0.0018 0.29055,-0.373562 z m 0.83013,-0.005 v -0.378571 l -0.3113,0.02576 c -0.30218,0.025 -0.31205,0.03611 -0.33683,0.378573 l -0.0255,0.352809 h 0.33683 0.33682 z m 0.81415,0.02576 c -0.0248,-0.343003 -0.0336,-0.352808 -0.31606,-0.352808 -0.28248,0 -0.29127,0.0097 -0.31608,0.352808 l -0.0255,0.352808 h 0.34161 0.3416 z m 1.3442,-0.14527 v -0.498082 h -0.24904 -0.24904 v 0.498082 0.498082 h 0.24904 0.24904 z m -7.13916,-1.328217 v -0.498082 h -0.24904 -0.24905 v 0.498082 0.498081 h 0.24905 0.24904 z m 1.41122,0.166025 c 0,-0.313605 -0.0138,-0.332054 -0.24903,-0.332054 -0.13698,0 -0.27293,-7.8e-5 -0.30213,-1.66e-4 -0.0292,-8.1e-5 -0.0572,0.149359 -0.0622,0.33212 -0.009,0.330277 -0.007,0.332286 0.30212,0.332226 0.30784,-6.3e-5 0.31131,-0.0038 0.31131,-0.332119 z m 0.83014,0 v -0.332054 h -0.33205 -0.33205 v 0.332054 0.332056 h 0.33205 0.33205 z m 0.81416,-0.0155 c -0.0248,-0.33701 -0.0343,-0.347566 -0.31608,-0.347566 -0.28172,0 -0.29132,0.01054 -0.31607,0.347566 l -0.0255,0.347566 h 0.34159 0.3416 z m 1.09516,0.0155 c 0,-0.324147 -0.007,-0.332054 -0.29055,-0.332054 -0.28364,0 -0.29055,0.0079 -0.29055,0.332054 0,0.32415 0.007,0.332056 0.29055,0.332056 0.28363,0 0.29055,-0.0079 0.29055,-0.332056 z m 0.83013,0.01384 c 0,-0.175021 -0.0175,-0.335755 -0.0389,-0.357188 -0.0214,-0.02143 -0.17086,-0.02357 -0.33206,-0.0048 -0.27935,0.03261 -0.29309,0.04934 -0.29309,0.357184 0,0.321462 10e-4,0.322977 0.33206,0.322977 0.32965,0 0.33205,-0.0022 0.33205,-0.318224 z m 0.81415,-0.02934 c -0.0248,-0.33701 -0.0343,-0.347566 -0.31606,-0.347566 -0.28173,0 -0.29133,0.01054 -0.31608,0.347566 l -0.0255,0.347566 h 0.34161 0.3416 z m 1.32759,-0.129765 c -0.0236,-0.451869 -0.0371,-0.47873 -0.25317,-0.503594 -0.22685,-0.0261 -0.2283,-0.02306 -0.2283,0.477327 v 0.503598 h 0.25319 0.25318 z m -7.13947,-1.338203 c -0.0232,-0.441052 -0.0374,-0.468819 -0.25288,-0.493609 -0.22797,-0.02623 -0.22829,-0.02553 -0.22829,0.504458 v 0.530725 l 0.25289,-0.03712 c 0.25107,-0.03684 0.25271,-0.04046 0.22828,-0.504455 z m 1.42814,0.17193 v -0.3984 l -0.29054,0.03392 c -0.28279,0.03302 -0.29055,0.04366 -0.29055,0.398399 0,0.361205 0.002,0.36448 0.29055,0.36448 h 0.29054 z m 0.81417,0.0041 0.0255,-0.352808 h -0.33684 c -0.33517,0 -0.33682,0.0015 -0.33682,0.318216 0,0.389288 0.0489,0.443602 0.37058,0.412086 0.23254,-0.02278 0.254,-0.05195 0.27755,-0.377494 z m 0.83013,-0.0076 0.0255,-0.345262 h -0.33682 c -0.33519,0 -0.33683,0.0015 -0.33683,0.31822 0,0.38723 0.002,0.389235 0.34589,0.379851 0.26374,-0.0072 0.2779,-0.02372 0.30224,-0.352809 z m 1.09516,0.0035 v -0.3984 l -0.29055,0.03392 c -0.28279,0.03302 -0.29055,0.04366 -0.29055,0.3984 0,0.361204 0.002,0.36448 0.29055,0.36448 h 0.29055 z m 0.81368,0.0046 c 0.0245,-0.327271 0.019,-0.33489 -0.27233,-0.368891 -0.16356,-0.01911 -0.31493,-0.01719 -0.33636,0.0042 -0.0587,0.05872 -0.0469,0.63991 0.0143,0.701083 0.0293,0.02934 0.16943,0.04083 0.31131,0.02553 0.23624,-0.02547 0.26006,-0.05593 0.28301,-0.361983 z m 0.8306,-0.0081 0.0255,-0.345259 h -0.33683 c -0.33518,0 -0.33682,0.0015 -0.33682,0.318217 0,0.38723 0.002,0.389234 0.34588,0.37985 0.26374,-0.0072 0.27792,-0.02372 0.30224,-0.352808 z m 1.30269,-0.144972 c 0,-0.480107 -0.005,-0.490828 -0.22827,-0.490828 -0.12557,0 -0.2283,0.02802 -0.2283,0.06226 v 0.500821 c 0,0.425514 0.007,0.438264 0.2283,0.42857 0.22216,-0.0097 0.22827,-0.02313 0.22827,-0.500823 z m -7.13916,-1.320963 c 0,-0.481654 -0.007,-0.498951 -0.22829,-0.524349 -0.22805,-0.02623 -0.22829,-0.02573 -0.22829,0.506459 0,0.527844 0.002,0.532647 0.22829,0.524345 0.22274,-0.0082 0.22829,-0.02045 0.22829,-0.506455 z m 1.45273,0.152188 v -0.359723 l -0.3113,-6.3e-5 -0.3113,-6.2e-5 0.0152,0.352871 c 0.008,0.194078 0.0176,0.355983 0.0207,0.359785 0.003,0.0038 0.13638,0.0069 0.29618,0.0069 0.28736,0 0.29055,-0.004 0.29055,-0.359727 z m 0.81417,-0.0069 0.0255,-0.352805 h -0.33684 c -0.33517,0 -0.33682,0.0015 -0.33682,0.318216 0,0.387046 0.0111,0.399448 0.35124,0.392746 0.25892,-0.0051 0.27253,-0.02153 0.29689,-0.358157 z m 0.83013,0 0.0255,-0.352805 h -0.33682 -0.33683 v 0.37857 0.378574 l 0.3113,-0.02576 c 0.30217,-0.025 0.31205,-0.0361 0.33683,-0.378573 z m 1.09516,0.0069 c 0,-0.355769 -0.003,-0.359723 -0.29055,-0.359723 -0.28736,0 -0.29055,0.004 -0.29055,0.359723 0,0.355774 0.003,0.359727 0.29055,0.359727 0.28735,0 0.29055,-0.004 0.29055,-0.359727 z m 0.83013,0.01644 v -0.376161 h -0.33205 c -0.32965,0 -0.33206,0.0022 -0.33206,0.318217 0,0.386026 0.003,0.389596 0.37021,0.414313 l 0.2939,0.01979 z m 0.81415,-0.02334 0.0255,-0.352808 h -0.33683 c -0.33518,0 -0.33682,0.0015 -0.33682,0.318217 0,0.389288 0.0489,0.443601 0.37057,0.412085 0.23255,-0.02278 0.254,-0.05195 0.27755,-0.377494 z m 1.3282,-0.195681 c -0.0239,-0.419317 -0.04,-0.44934 -0.25378,-0.473942 -0.22659,-0.02608 -0.2283,-0.02256 -0.2283,0.471555 0,0.451799 0.0172,0.500663 0.18678,0.528584 0.27843,0.04586 0.32332,-0.03415 0.2953,-0.526197 z m -7.13978,-1.257058 0.0249,-0.47733 h -0.25319 -0.25318 v 0.503598 c 0,0.500403 0.002,0.503427 0.22829,0.477326 0.2161,-0.02488 0.22961,-0.05173 0.25318,-0.503594 z m 1.42784,0.145273 c 0,-0.371582 -0.002,-0.373559 -0.29054,-0.373559 -0.28901,0 -0.29055,0.0018 -0.29055,0.373559 0,0.371587 0.002,0.373564 0.29055,0.373564 0.28901,0 0.29054,-0.0018 0.29054,-0.373564 z m 0.83014,0 v -0.373559 h -0.33205 -0.33205 v 0.373559 0.373564 h 0.33205 0.33205 z m 0.81416,-0.02074 0.0255,-0.352805 h -0.33682 -0.33683 v 0.37857 0.378573 l 0.3113,-0.02576 c 0.30217,-0.025 0.31205,-0.03611 0.33683,-0.378574 z m 1.09516,0.02074 c 0,-0.371582 -10e-4,-0.373559 -0.29055,-0.373559 -0.28901,0 -0.29055,0.0018 -0.29055,0.373559 0,0.371587 10e-4,0.373564 0.29055,0.373564 0.28901,0 0.29055,-0.0018 0.29055,-0.373564 z m 0.83013,0 v -0.373559 h -0.33205 c -0.32965,0 -0.33206,0.0022 -0.33206,0.318216 0,0.388564 0.0365,0.428907 0.3874,0.428907 0.27261,0 0.27671,-0.0055 0.27671,-0.373564 z m 0.81415,-0.02074 0.0255,-0.352805 h -0.33683 -0.33682 v 0.37857 0.378573 l 0.3113,-0.02576 c 0.30216,-0.025 0.31205,-0.03611 0.33682,-0.378574 z m 1.32759,-0.124519 0.0249,-0.47733 -0.27393,-1.66e-4 -0.27394,-1.63e-4 0.0284,0.50301 c 0.0276,0.48966 0.0342,0.502337 0.24903,0.477481 0.20694,-0.02394 0.22223,-0.05526 0.24557,-0.502863 z m -7.13917,-1.32822 0.0249,-0.477327 h -0.25319 -0.25318 v 0.503594 c 0,0.500404 0.002,0.503429 0.22829,0.477331 0.2161,-0.02488 0.22961,-0.05173 0.25318,-0.503598 z m 1.42784,0.145277 v -0.373564 l -0.3113,-6.5e-5 -0.3113,-6e-5 0.0152,0.352868 c 0.008,0.194081 0.0176,0.362211 0.0207,0.373626 0.003,0.01142 0.13638,0.02074 0.29618,0.02074 0.28902,0 0.29055,-0.0018 0.29055,-0.373562 z m 0.83014,0 v -0.373564 h -0.33205 -0.33205 v 0.373564 0.37356 h 0.33205 0.33205 z m 0.81416,-0.02077 0.0255,-0.352805 h -0.33682 -0.33683 v 0.378574 0.37857 l 0.3113,-0.02576 c 0.30217,-0.025 0.31205,-0.03611 0.33683,-0.378571 z m 1.09516,0.02077 c 0,-0.371586 -10e-4,-0.373564 -0.29055,-0.373564 -0.28901,0 -0.29055,0.0018 -0.29055,0.373564 0,0.371582 10e-4,0.37356 0.29055,0.37356 0.28901,0 0.29055,-0.0018 0.29055,-0.37356 z m 0.83013,0 v -0.373564 h -0.33205 c -0.32965,0 -0.33206,0.0022 -0.33206,0.318221 0,0.38856 0.0365,0.428903 0.3874,0.428903 0.27261,0 0.27671,-0.0055 0.27671,-0.37356 z m 0.83013,0 v -0.373564 h -0.33204 -0.33206 v 0.373564 0.37356 h 0.33206 0.33204 z m 1.31161,-0.145277 0.0249,-0.477327 h -0.25317 -0.25319 v 0.503594 c 0,0.500404 0.002,0.503429 0.22829,0.477331 0.21611,-0.02488 0.22961,-0.05173 0.25317,-0.503598 z m -7.12255,-1.307465 v -0.498083 h -0.24904 -0.24905 v 0.498083 0.498082 h 0.24905 0.24904 z m 1.41122,0.124521 c 0,-0.371585 -0.002,-0.373563 -0.29054,-0.373563 -0.28901,0 -0.29055,0.0018 -0.29055,0.373563 0,0.371583 0.002,0.373561 0.29055,0.373561 0.28901,0 0.29054,-0.0018 0.29054,-0.373561 z m 0.83014,0 v -0.373563 h -0.33205 -0.33205 v 0.373563 0.373561 h 0.33205 0.33205 z m 0.78863,0 c 0,-0.323785 -0.008,-0.332696 -0.3113,-0.357815 l -0.3113,-0.02576 v 0.383581 0.383584 l 0.3113,-0.02576 c 0.30354,-0.02513 0.3113,-0.03403 0.3113,-0.357818 z m 1.12069,0 c 0,-0.371585 -10e-4,-0.373563 -0.29055,-0.373563 -0.28901,0 -0.29055,0.0018 -0.29055,0.373563 0,0.371583 10e-4,0.373561 0.29055,0.373561 0.28901,0 0.29055,-0.0018 0.29055,-0.373561 z m 0.83013,0 v -0.373563 h -0.33205 -0.33206 v 0.373563 0.373561 h 0.33206 0.33205 z m 0.83013,0 v -0.373563 h -0.33204 -0.33206 v 0.373563 0.373561 h 0.33206 0.33204 z m 1.32822,-0.124521 v -0.498083 h -0.24904 -0.24904 v 0.498083 0.498082 h 0.24904 0.24904 z m -7.13916,-1.328217 v -0.498082 h -0.24904 -0.24905 v 0.498082 0.498081 h 0.24905 0.24904 z m 1.41122,0.124521 c 0,-0.36938 -0.003,-0.373562 -0.28182,-0.373562 -0.26879,0 -0.28331,0.01556 -0.31391,0.336368 -0.0176,0.185001 -0.0154,0.353105 0.005,0.373559 0.0205,0.02046 0.16171,0.0372 0.3139,0.0372 0.27261,0 0.27671,-0.0055 0.27671,-0.373561 z m 0.83014,0 v -0.373562 h -0.33205 -0.33205 v 0.373562 0.37356 h 0.33205 0.33205 z m 0.81416,-0.02074 0.0255,-0.352809 h -0.33682 -0.33683 v 0.378574 0.37857 l 0.3113,-0.02576 c 0.30217,-0.025 0.31205,-0.03611 0.33683,-0.378574 z m 1.09516,0.02074 c 0,-0.371586 -10e-4,-0.373562 -0.29055,-0.373562 -0.28901,0 -0.29055,0.0018 -0.29055,0.373562 0,0.371584 10e-4,0.37356 0.29055,0.37356 0.28901,0 0.29055,-0.0018 0.29055,-0.37356 z m 0.83013,0 v -0.373562 h -0.33205 c -0.32965,0 -0.33206,0.0022 -0.33206,0.318219 0,0.388561 0.0365,0.428903 0.3874,0.428903 0.27261,0 0.27671,-0.0055 0.27671,-0.37356 z m 0.83013,0 v -0.373562 h -0.33204 -0.33206 v 0.373562 0.37356 h 0.33206 0.33204 z m 1.32822,-0.124521 v -0.498082 h -0.24904 -0.24904 v 0.498082 0.498081 h 0.24904 0.24904 z m -7.13916,-1.328217 v -0.498115 h -0.24904 -0.24905 v 0.498082 0.498081 h 0.24905 0.24904 z m 1.41122,0.124522 c 0,-0.371584 -0.002,-0.373563 -0.29054,-0.373563 -0.28901,0 -0.29055,0.0018 -0.29055,0.373563 0,0.371583 0.002,0.373559 0.29055,0.373559 0.28901,0 0.29054,-0.0018 0.29054,-0.373559 z m 0.83014,0 v -0.373563 h -0.33205 -0.33205 v 0.373563 0.373559 h 0.33205 0.33205 z m 0.81416,0.02074 c -0.0248,-0.342461 -0.0346,-0.353565 -0.33683,-0.378574 l -0.3113,-0.02576 v 0.37857 0.378571 h 0.33683 0.33682 z m 1.09516,-0.02074 c 0,-0.371584 -10e-4,-0.373563 -0.29055,-0.373563 -0.28901,0 -0.29055,0.0018 -0.29055,0.373563 0,0.371583 10e-4,0.373559 0.29055,0.373559 0.28901,0 0.29055,-0.0018 0.29055,-0.373559 z m 0.83013,-0.005 v -0.378571 l -0.3113,0.02576 c -0.30218,0.025 -0.31205,0.03611 -0.33683,0.378571 l -0.0255,0.352808 h 0.33683 0.33682 z m 0.83013,0.005 v -0.373563 h -0.33204 -0.33206 v 0.373563 0.373559 h 0.33206 0.33204 z m 1.32822,-0.124522 v -0.498115 h -0.24904 -0.24904 v 0.498082 0.498081 h 0.24904 0.24904 z m -7.13916,-1.328214 v -0.498081 h -0.24904 -0.24905 v 0.498081 0.498082 h 0.24905 0.24904 z m 1.41122,0.124516 c 0,-0.371583 -0.002,-0.373556 -0.29054,-0.373556 -0.28901,0 -0.29055,0.0018 -0.29055,0.373556 0,0.371589 0.002,0.373566 0.29055,0.373566 0.28901,0 0.29054,-0.0018 0.29054,-0.373566 z m 0.83014,0 v -0.373556 h -0.33205 -0.33205 v 0.373556 0.373566 h 0.33205 0.33205 z m 0.81416,0.02074 c -0.0248,-0.342463 -0.0346,-0.353564 -0.33683,-0.378569 l -0.3113,-0.02576 v 0.37857 0.37857 h 0.33683 0.33682 z m 1.09516,-0.02074 c 0,-0.371583 -10e-4,-0.373556 -0.29055,-0.373556 -0.28901,0 -0.29055,0.0018 -0.29055,0.373556 0,0.371589 10e-4,0.373566 0.29055,0.373566 0.28901,0 0.29055,-0.0018 0.29055,-0.373566 z m 0.83013,0 v -0.373556 h -0.33205 -0.33206 v 0.373556 0.373566 h 0.33206 0.33205 z m 0.83013,0 v -0.373556 h -0.33204 -0.33206 v 0.373556 0.373566 h 0.33206 0.33204 z m 1.32822,-0.124516 v -0.498081 h -0.24904 -0.24904 v 0.498081 0.498082 h 0.24904 0.24904 z m -7.13916,-1.328218 v -0.498083 h -0.24904 -0.24905 v 0.498083 0.498081 h 0.24905 0.24904 z m 1.41122,0.124518 c 0,-0.368025 -0.004,-0.37356 -0.2767,-0.37356 -0.1522,0 -0.29345,0.01676 -0.31391,0.03719 -0.0204,0.02046 -0.0228,0.188559 -0.005,0.37356 0.0306,0.320796 0.0451,0.336368 0.3139,0.336368 0.27868,0 0.28183,-0.0042 0.28183,-0.373563 z m 0.83014,0 v -0.37356 h -0.33205 -0.33205 v 0.37356 0.373563 h 0.33205 0.33205 z m 0.81416,0.02074 c -0.0248,-0.342464 -0.0346,-0.353564 -0.33683,-0.37857 l -0.3113,-0.02576 v 0.378571 0.378577 h 0.33683 0.33682 z m 1.09516,-0.02074 c 0,-0.371583 -10e-4,-0.37356 -0.29055,-0.37356 -0.28901,0 -0.29055,0.0018 -0.29055,0.37356 0,0.371586 10e-4,0.373563 0.29055,0.373563 0.28901,0 0.29055,-0.0018 0.29055,-0.373563 z m 0.83013,-0.005 v -0.378571 l -0.3113,0.02576 c -0.30218,0.025 -0.31205,0.03611 -0.33683,0.378573 l -0.0255,0.352805 h 0.33683 0.33682 z m 0.83013,0.005 v -0.37356 h -0.33204 -0.33206 v 0.37356 0.373563 h 0.33206 0.33204 z m 1.32822,-0.124518 v -0.498083 h -0.24904 -0.24904 v 0.498083 0.498081 h 0.24904 0.24904 z m -7.13916,-1.328218 v -0.498081 h -0.24904 -0.24905 v 0.498081 0.498082 h 0.24905 0.24904 z m 1.41122,0.124519 c 0,-0.371583 -0.002,-0.373559 -0.29054,-0.373559 -0.28901,0 -0.29055,0.0018 -0.29055,0.373559 0,0.371587 0.002,0.373563 0.29055,0.373563 0.28901,0 0.29054,-0.0018 0.29054,-0.373563 z m 0.83014,0 v -0.373559 h -0.33205 -0.33205 v 0.373559 0.373563 h 0.33205 0.33205 z m 0.81416,0.02074 c -0.0248,-0.342457 -0.0346,-0.353558 -0.33683,-0.378573 l -0.3113,-0.02576 v 0.378573 0.378574 h 0.33683 0.33682 z m 1.09516,-0.02074 c 0,-0.371583 -10e-4,-0.373559 -0.29055,-0.373559 -0.28901,0 -0.29055,0.0018 -0.29055,0.373559 0,0.371587 10e-4,0.373563 0.29055,0.373563 0.28901,0 0.29055,-0.0018 0.29055,-0.373563 z m 0.83013,-0.005 v -0.37857 l -0.3113,0.02576 c -0.30218,0.025 -0.31205,0.03611 -0.33683,0.37857 l -0.0255,0.352809 h 0.33683 0.33682 z m 0.81415,0.02576 c -0.0248,-0.34246 -0.0346,-0.353561 -0.33682,-0.378573 l -0.3113,-0.02576 v 0.378573 0.378574 h 0.33682 0.33684 z m 1.3442,-0.14527 v -0.498083 h -0.24904 -0.24904 v 0.498083 0.498082 h 0.24904 0.24904 z m -7.13916,-1.328217 v -0.498082 h -0.24904 -0.24905 v 0.498082 0.498081 h 0.24905 0.24904 z m 1.41122,0.124518 c 0,-0.368024 -0.004,-0.373559 -0.2767,-0.373559 -0.1522,0 -0.29345,0.01675 -0.31391,0.03719 -0.0204,0.02046 -0.0228,0.188559 -0.005,0.373563 0.0306,0.320796 0.0451,0.336367 0.3139,0.336367 0.27868,0 0.28183,-0.0042 0.28183,-0.373563 z m 0.83014,-0.005 v -0.37857 l -0.31129,0.02576 c -0.30218,0.025 -0.31206,0.03611 -0.33684,0.378574 l -0.0255,0.352805 h 0.33683 0.33683 z m 0.81416,0.02576 c -0.0248,-0.342461 -0.0346,-0.353562 -0.33683,-0.378574 l -0.3113,-0.02576 v 0.378573 0.378574 h 0.33683 0.33682 z m 1.09516,-0.02074 c 0,-0.371583 -10e-4,-0.373559 -0.29055,-0.373559 -0.28901,0 -0.29055,0.0018 -0.29055,0.373559 0,0.371587 10e-4,0.373563 0.29055,0.373563 0.28901,0 0.29055,-0.0018 0.29055,-0.373563 z m 0.83013,-0.005 v -0.37857 l -0.3113,0.02576 c -0.30218,0.025 -0.31205,0.03611 -0.33683,0.378574 l -0.0255,0.352805 h 0.33683 0.33682 z m 0.81415,0.02576 c -0.0248,-0.342461 -0.0346,-0.353562 -0.33682,-0.378577 l -0.3113,-0.02576 v 0.378577 0.378574 h 0.33682 0.33684 z m 1.32759,-0.124519 c -0.0234,-0.447602 -0.0386,-0.478921 -0.24557,-0.502861 -0.21481,-0.02485 -0.22142,-0.01218 -0.24903,0.477478 l -0.0284,0.503007 0.27394,-1.63e-4 0.27393,-1.66e-4 -0.0249,-0.477333 z m -7.13856,-1.357874 c -0.0239,-0.419317 -0.04,-0.449336 -0.25379,-0.473941 -0.22658,-0.02607 -0.22829,-0.02256 -0.22829,0.471554 0,0.451804 0.0172,0.500664 0.18679,0.528585 0.27842,0.04586 0.32332,-0.03415 0.29529,-0.526198 z m 1.42723,0.150091 v -0.356843 l -0.2826,0.033 c -0.26097,0.03047 -0.28497,0.05778 -0.3135,0.35689 l -0.0309,0.323896 h 0.31349 0.3135 z m 0.83014,0.03392 c 0,-0.307841 -0.0137,-0.324577 -0.29309,-0.357188 -0.16119,-0.01882 -0.31061,-0.01669 -0.33205,0.0048 -0.0214,0.02142 -0.0389,0.182167 -0.0389,0.357188 0,0.315914 0.002,0.318219 0.33205,0.318219 0.3305,0 0.33206,-0.0015 0.33206,-0.322972 z m 0.83014,-0.0091 v -0.332056 h -0.33206 -0.33205 v 0.332056 0.332057 h 0.33205 0.33206 z m 1.07918,-0.02485 v -0.356846 l -0.29055,0.03392 c -0.27646,0.03228 -0.29055,0.04958 -0.29055,0.35689 0,0.31377 0.008,0.32297 0.29055,0.32297 0.287,0 0.29055,-0.0044 0.29055,-0.356887 z m 0.83013,0.03392 c 0,-0.307841 -0.0137,-0.324577 -0.29308,-0.357188 -0.1612,-0.01882 -0.31063,-0.01669 -0.33206,0.0048 -0.0214,0.02142 -0.039,0.182167 -0.039,0.357188 0,0.315914 0.002,0.31822 0.33206,0.31822 0.3305,0 0.33206,-0.0015 0.33206,-0.322974 z m 0.83013,-0.0091 v -0.332058 h -0.33204 -0.33206 v 0.332058 0.332056 h 0.33206 0.33204 z m 1.31161,-0.145278 c -0.024,-0.459339 -0.0335,-0.477323 -0.25317,-0.477323 -0.12557,0 -0.2283,0.02802 -0.2283,0.06226 v 0.477323 c 0,0.407358 0.005,0.415073 0.25319,0.415073 h 0.25318 z"
       style="fill:#ffffff;fill-opacity:1;stroke-width:0.021964"
       id="path63522" />
    <rect
       style="fill:#ffffff;fill-opacity:1;fill-rule:evenodd;stroke:#ffffff;stroke-width:0.529167;paint-order:stroke fill markers"
       id="rect68144"
       width="0.43858868"
       height="7.8945956"
       x="8.9812222"
       y="25.657335" />
    <text
       xml:space="preserve"
       transform="matrix(0.26458333,0,0,0.26458333,162.04867,111.18212)"
       id="text72838"
       style="font-size:26.6667px;line-height:173.92%;font-family:'Miriam Libre';-inkscape-font-specification:'Miriam Libre';letter-spacing:2.94px;white-space:pre;shape-inside:url(#rect72840);fill:#000000" />
  </g>
</svg>
